<mxfile host="Electron" agent="Mozilla/5.0 (Macintosh; Intel Mac OS X 10_15_7) AppleWebKit/537.36 (KHTML, like Gecko) draw.io/26.1.1 Chrome/132.0.6834.210 Electron/34.3.3 Safari/537.36" version="26.1.1">
  <diagram id="3228e29e-7158-1315-38df-8450db1d8a1d" name="Page-1">
    <mxGraphModel dx="1683" dy="1080" grid="1" gridSize="10" guides="1" tooltips="1" connect="1" arrows="1" fold="1" page="1" pageScale="1" pageWidth="1169" pageHeight="827" background="none" math="0" shadow="0">
      <root>
        <mxCell id="0" />
        <mxCell id="1" parent="0" />
        <mxCell id="21531" value="" style="ellipse;fillColor=#B3B3B3;opacity=50;strokeColor=none;html=1;fontColor=#FFFFFF;" parent="1" vertex="1">
          <mxGeometry x="320" y="260" width="500" height="500" as="geometry" />
        </mxCell>
        <mxCell id="21532" value="" style="ellipse;fillColor=#12AAB5;opacity=50;strokeColor=none;html=1;fontColor=#FFFFFF;gradientColor=none;shadow=0;" parent="1" vertex="1">
          <mxGeometry x="160" y="20" width="500" height="500" as="geometry" />
        </mxCell>
        <mxCell id="21533" value="" style="ellipse;fillColor=#CDA2BE;opacity=50;strokeColor=none;html=1;fontColor=#FFFFFF;" parent="1" vertex="1">
          <mxGeometry x="470" y="20" width="500" height="500" as="geometry" />
        </mxCell>
        <mxCell id="21534" value="离散选择模型（包&lt;div&gt;含&lt;span style=&quot;&quot;&gt;随机效用模型、&lt;/span&gt;&lt;/div&gt;&lt;div&gt;&lt;span style=&quot;&quot;&gt;Logit模&lt;/span&gt;&lt;span style=&quot;&quot;&gt;型等）&lt;/span&gt;&lt;/div&gt;" style="text;fontSize=24;align=center;verticalAlign=middle;html=1;fontColor=#000000;fontStyle=0;strokeWidth=1;labelBackgroundColor=none;labelBorderColor=none;textShadow=1;" parent="1" vertex="1">
          <mxGeometry x="240" y="210" width="190" height="70" as="geometry" />
        </mxCell>
        <mxCell id="21535" value="劳动力迁移研究（包&lt;div&gt;含推拉模型等&lt;span style=&quot;background-color: transparent;&quot;&gt;）&lt;/span&gt;&lt;/div&gt;" style="text;fontSize=24;align=center;verticalAlign=middle;html=1;fontColor=#000000;fontStyle=0;textShadow=1;" parent="1" vertex="1">
          <mxGeometry x="710" y="210" width="190" height="70" as="geometry" />
        </mxCell>
        <mxCell id="21536" value="序列决策问题（包括动&lt;div&gt;态&lt;span style=&quot;background-color: transparent;&quot;&gt;规划问题、单一代理&lt;/span&gt;&lt;/div&gt;&lt;div&gt;&lt;span style=&quot;background-color: transparent;&quot;&gt;人动态问题）&lt;/span&gt;&lt;/div&gt;" style="text;fontSize=24;align=center;verticalAlign=middle;html=1;fontColor=#000000;fontStyle=0;textShadow=1;" parent="1" vertex="1">
          <mxGeometry x="470" y="540" width="190" height="70" as="geometry" />
        </mxCell>
        <mxCell id="21540" value="最优居住地序&lt;div&gt;列&lt;span style=&quot;background-color: transparent; color: light-dark(rgb(0, 0, 0), rgb(237, 237, 237));&quot;&gt;选择问题&lt;/span&gt;&lt;/div&gt;" style="text;align=center;html=1;fontColor=#000000;fontSize=24;fontStyle=1;textShadow=1;" parent="1" vertex="1">
          <mxGeometry x="500" y="310" width="130" height="50" as="geometry" />
        </mxCell>
      </root>
    </mxGraphModel>
  </diagram>
</mxfile>
